HIERARCHY
ROOT Bip001_Pelvis
{
  OFFSET 33.2923 95.8902 -28.781
  CHANNELS 6 Xposition Yposition Zposition Zrotation Xrotation Yrotation
  JOINT Bip001_Spine
  {
    OFFSET 1.4188e-005 10.2191 -0.0116013
    CHANNELS 3 Zrotation Xrotation Yrotation
    JOINT Bip001_L_Thigh
    {
      OFFSET 11.0458 -10.2192 0.0116197
      CHANNELS 3 Zrotation Xrotation Yrotation
      JOINT Bip001_L_Calf
      {
        OFFSET -0.707118 -44.0221 0.360014
        CHANNELS 3 Zrotation Xrotation Yrotation
        JOINT Bip001_L_Foot
        {
          OFFSET -0.651902 -40.5938 -3.56146
          CHANNELS 3 Zrotation Xrotation Yrotation
          JOINT Bip001_L_Toe0
          {
            OFFSET 0.0530839 -10.2181 13.1504
            CHANNELS 3 Zrotation Xrotation Yrotation
            End Site
            {
              OFFSET -1.02532e-005 0 7.55606
            }
          }
        }
      }
    }
    JOINT Bip001_R_Thigh
    {
      OFFSET -11.0458 -10.2191 0.0115893
      CHANNELS 3 Zrotation Xrotation Yrotation
      JOINT Bip001_R_Calf
      {
        OFFSET 0.706994 -44.0221 0.35984
        CHANNELS 3 Zrotation Xrotation Yrotation
        JOINT Bip001_R_Foot
        {
          OFFSET 0.651786 -40.5938 -3.5613
          CHANNELS 3 Zrotation Xrotation Yrotation
          JOINT Bip001_R_Toe0
          {
            OFFSET -0.0531479 -10.2181 13.1504
            CHANNELS 3 Zrotation Xrotation Yrotation
            End Site
            {
              OFFSET -1.02894e-005 0 7.55606
            }
          }
        }
      }
    }
    JOINT Bip001_Spine1
    {
      OFFSET 1.87041e-005 14.5736 1.08638
      CHANNELS 3 Zrotation Xrotation Yrotation
      JOINT Bip001_Spine2
      {
        OFFSET 2.24614e-005 14.5058 -1.69078
        CHANNELS 3 Zrotation Xrotation Yrotation
        JOINT Bip001_Neck
        {
          OFFSET 2.20278e-005 15.3945 -0.489414
          CHANNELS 3 Zrotation Xrotation Yrotation
          JOINT Bip001_L_Clavicle
          {
            OFFSET 6.06036 -0.000579998 0.00836775
            CHANNELS 3 Zrotation Xrotation Yrotation
            JOINT Bip001_L_UpperArm
            {
              OFFSET 11.5509 -0.0600302 0.00193952
              CHANNELS 3 Zrotation Xrotation Yrotation
              JOINT Bip001_L_Forearm
              {
                OFFSET 25.9523 0.0806089 -2.15551
                CHANNELS 3 Zrotation Xrotation Yrotation
                JOINT Bip001_L_Hand
                {
                  OFFSET 32.2476 0.153767 1.63968
                  CHANNELS 3 Zrotation Xrotation Yrotation
                  JOINT Bip001_L_Finger0
                  {
                    OFFSET 6.04639 -2.20976 5.90322
                    CHANNELS 3 Zrotation Xrotation Yrotation
                    End Site
                    {
                      OFFSET 4.22376 -1.43895 0.606486
                    }
                  }
                  JOINT Bip001_L_Finger1
                  {
                    OFFSET 11.0826 -0.704819 -0.198153
                    CHANNELS 3 Zrotation Xrotation Yrotation
                    End Site
                    {
                      OFFSET 6.20028 -0.397518 -0.0787166
                    }
                  }
                }
              }
            }
          }
          JOINT Bip001_R_Clavicle
          {
            OFFSET -6.06036 -0.000563197 0.00835105
            CHANNELS 3 Zrotation Xrotation Yrotation
            JOINT Bip001_R_UpperArm
            {
              OFFSET -11.5509 -0.0599978 0.00190698
              CHANNELS 3 Zrotation Xrotation Yrotation
              JOINT Bip001_R_Forearm
              {
                OFFSET -25.9523 0.080682 -2.1559
                CHANNELS 3 Zrotation Xrotation Yrotation
                JOINT Bip001_R_Hand
                {
                  OFFSET -32.2476 0.153858 1.63991
                  CHANNELS 3 Zrotation Xrotation Yrotation
                  JOINT Bip001_R_Finger0
                  {
                    OFFSET -6.04641 -2.20974 5.90321
                    CHANNELS 3 Zrotation Xrotation Yrotation
                    End Site
                    {
                      OFFSET -4.22376 -1.43894 0.606474
                    }
                  }
                  JOINT Bip001_R_Finger1
                  {
                    OFFSET -11.0826 -0.704789 -0.198184
                    CHANNELS 3 Zrotation Xrotation Yrotation
                    End Site
                    {
                      OFFSET -6.20028 -0.397501 -0.0787338
                    }
                  }
                }
              }
            }
          }
          JOINT Bip001_Head
          {
            OFFSET 1.09673e-005 11.2744 2.05948
            CHANNELS 3 Zrotation Xrotation Yrotation
            End Site
            {
              OFFSET 2.89576e-005 20.8808 -2.77728e-005
            }
          }
        }
      }
    }
  }
}
MOTION
Frames:	9
Frame Time:	0.04
32.1179 95.9194 -28.4383 0.675841 -0.48205 -0.493478 -0.0391033 2.90692 0.0655818 4.68626 -2.69327 6.67144 -0.255413 6.02163 -9.9476 3.71207 -1.80327 -0.117491 -3.37789 -4.22939 5.24468 -3.53806 -4.1717 -1.96226 0.330612 10.8466 0.275546 -4.90032 -10.365 4.16314 1.80878 -6.46751 2.2343 -0.0734502 5.80939 0.155693 -0.0735584 5.80939 0.155768 -0.250591 -0.0485169 -3.43187 -23.3921 2.13265 -4.87126 -49.5662 41.2014 -1.92361 12.4079 -0.394657 -26.7978 8.06079 0.750889 -2.50073 3.18055e-015 0 -1.59028e-015 6.36111e-015 3.18056e-015 -1.59028e-015 28.8539 6.47113 13.0606 46.3373 42.9705 7.24524 -9.30978 3.80441 8.70083 -5.50724 1.91225 3.93776 -3.18055e-015 9.54166e-015 -0 2.64834e-031 9.54167e-015 -1.59028e-015 3.34322 13.962 -4.47823 
32.0938 95.9315 -28.4609 0.615342 -0.506642 -0.407597 -0.0391033 2.90692 0.0655818 4.79169 -2.69744 5.86285 -0.371052 5.99123 -9.18022 3.58266 -1.8392 -0.117493 -3.39238 -4.14795 5.26812 -3.44292 -4.06023 -1.96883 0.314747 10.6556 0.257608 -4.91193 -10.2581 4.14105 1.80635 -6.46069 2.21509 -0.0734622 5.81379 0.155694 -0.0735704 5.81379 0.155769 -0.0916405 0.0688075 -3.43187 -23.507 1.99912 -4.86759 -49.6544 41.3137 -1.74797 12.3923 -0.530944 -26.7778 8.08345 0.758014 -2.43818 3.18055e-015 -6.36111e-015 -4.77083e-015 -1.76556e-031 -3.18056e-015 -3.18055e-015 28.8346 6.38973 13.1248 46.2466 42.5661 7.11653 -9.18335 3.8382 8.80324 -6.18863 1.88771 3.84981 3.18055e-015 -3.18055e-015 -7.95139e-016 3.18055e-015 -3.18056e-015 -7.95139e-016 3.1248 13.8817 -4.36259 
32.0649 95.9354 -28.4855 0.55975 -0.510938 -0.262502 -0.0391174 2.91915 0.0655825 4.87301 -2.74782 4.99224 -0.501138 5.93636 -8.51808 3.94561 -1.49282 -0.142616 -3.3012 -4.43051 5.19238 -3.35315 -4.0133 -2.05679 0.294918 10.5601 0.280075 -4.93934 -10.2108 4.07818 1.81264 -6.49408 2.24039 -0.0869408 5.83824 0.133615 -0.0871596 5.83825 0.133615 0.0174643 0.0607812 -3.41248 -23.5481 1.96996 -4.76706 -49.7236 41.3805 -1.67434 12.3256 -0.601845 -26.6584 8.04393 0.780307 -2.34072 -8.82781e-032 3.18055e-015 1.59028e-015 3.18055e-015 0 -1.59028e-015 28.7483 6.38631 13.12 46.2969 42.798 6.99583 -9.31914 3.02789 8.89838 -6.60255 1.8199 3.64867 0 0 -0 4.41391e-032 -3.18056e-015 7.95139e-016 2.96803 13.9312 -4.26076 
32.0032 95.9393 -28.4928 0.470365 -0.56396 -0.0635522 -0.0328692 2.93963 0.0655924 5.12419 -2.99818 5.93956 -0.419702 6.57401 -9.46144 2.56162 -2.82573 -0.0543878 -3.93643 -3.37218 5.76699 -3.18899 -3.83362 -2.19347 0.218101 10.3153 0.310374 -4.97376 -10.1291 4.01797 1.81711 -6.51466 2.24868 -0.0676959 5.87924 0.115023 -0.0676659 5.87924 0.115171 0.0723912 0.0845918 -3.44694 -23.6097 1.91678 -4.69503 -49.7989 41.4161 -1.56978 12.3973 -0.442433 -26.4564 7.95582 0.754948 -2.35287 -3.18055e-015 -6.36111e-015 1.59028e-015 -3.18055e-015 -6.36111e-015 4.77083e-015 28.6603 6.39068 13.2014 46.4499 42.8575 6.75034 -9.63529 2.23166 9.12461 -6.36722 1.90406 3.53046 1.59028e-015 0 -0 3.18055e-015 -3.18056e-015 -0 2.87915 13.8906 -4.24587 
31.9482 95.92 -28.5048 0.359171 -0.599534 0.10611 -0.0164134 2.96415 0.0656541 5.26361 -3.1183 6.34843 -0.479908 6.71265 -10.1049 3.63893 -2.10386 -0.112852 -3.41892 -4.08692 5.28896 -3.03287 -3.78645 -2.34651 0.166781 10.2852 0.337045 -4.97576 -10.1161 3.99461 1.81979 -6.5244 2.25 -0.0334419 5.92829 0.113736 -0.0334427 5.9283 0.11363 0.144166 0.101488 -3.53752 -23.6952 1.86105 -4.61851 -49.8864 41.3258 -1.5301 12.3693 -0.370464 -26.2025 7.78873 0.888494 -2.24045 -6.36111e-015 6.36111e-015 1.59028e-015 -6.36111e-015 0 -0 28.5309 6.45466 13.4225 46.4833 42.7316 6.52589 -9.90347 1.82149 9.47018 -6.15828 2.24654 3.58942 3.18055e-015 0 7.95139e-016 4.77083e-015 -3.18056e-015 -0 2.81312 13.8063 -4.29005 
31.8967 95.9199 -28.5115 0.270409 -0.609521 0.276099 -0.016976 2.97658 0.0658187 5.4226 -3.27976 6.57595 -0.479 6.97148 -10.4331 3.48705 -2.30568 -0.0982427 -3.43975 -4.03719 5.29937 -2.88211 -3.71349 -2.40225 0.1211 10.1738 0.302663 -5.00313 -10.0576 3.92125 1.82237 -6.53321 2.25108 -0.0215141 5.95377 0.123527 -0.0215141 5.95378 0.123528 0.251735 0.158206 -3.63031 -23.7725 1.75176 -4.5185 -49.939 41.4353 -1.50007 12.319 -0.430909 -25.9609 7.77022 0.917998 -2.18757 -3.18055e-015 -3.18055e-015 -1.59028e-015 0 0 -0 28.3884 6.5197 13.7713 46.5406 43.314 6.07337 -10.4708 0.601857 10.0367 -6.03444 2.39348 3.67285 1.59028e-015 -6.36111e-015 -1.59028e-015 1.59028e-015 -3.18056e-015 -1.59028e-015 2.7292 13.7533 -4.31816 
31.8757 95.9203 -28.5152 0.256921 -0.602858 0.430402 -0.0242929 2.97647 0.0693254 5.50522 -3.38256 6.5568 -0.492986 7.12105 -10.5823 3.18384 -2.59024 -0.0798238 -3.65001 -3.80081 5.50695 -2.82235 -3.67254 -2.30866 0.145162 10.1138 0.25089 -5.05925 -10.0148 3.71434 1.82496 -6.54122 2.25223 -0.0527186 5.95403 0.13938 -0.0525455 5.95403 0.139849 0.369043 0.343672 -3.68478 -23.8496 1.49643 -4.35724 -49.9513 41.7418 -1.52141 12.3933 -0.453171 -25.6927 7.53899 0.825672 -2.13236 3.53112e-031 6.36111e-015 -3.18055e-015 -3.18055e-015 3.18056e-015 -1.59028e-015 28.337 6.53382 14.3076 46.5807 43.793 5.5138 -11.185 0.153802 10.6221 -6.14363 2.46738 3.73026 -4.77083e-015 0 -0 -3.18055e-015 -3.18056e-015 -0 2.66221 13.6139 -4.31463 
31.9274 95.9148 -28.5907 0.358946 -0.420703 0.4505 -0.067229 2.94807 0.109476 5.35026 -3.55638 6.3403 -0.435329 7.02233 -10.432 3.4074 -2.33085 -0.0951294 -3.50394 -3.96195 5.36702 -2.94879 -3.99277 -1.66353 0.352965 10.3496 0.117242 -5.21311 -10.0007 3.14006 1.82909 -6.54223 2.25373 -0.140386 5.89599 0.222864 -0.140386 5.89601 0.222863 0.473086 0.524105 -3.72261 -23.9689 1.28389 -4.30554 -49.9086 41.6958 -1.57612 12.4182 -0.359557 -25.475 7.42857 0.814444 -2.14718 -0 0 4.77083e-015 -0 0 3.18055e-015 28.3857 6.53109 14.7378 46.3221 43.9002 5.14568 -11.9749 -1.97445 11.2723 -4.95053 2.58949 4.69724 -3.18055e-015 3.18055e-015 3.97569e-015 -1.59028e-015 3.18056e-015 3.97569e-015 2.54782 13.4412 -4.28021 
31.9503 95.911 -28.6246 0.420071 -0.339678 0.642208 -0.0887456 2.93691 0.120507 5.28751 -3.72384 6.24269 -0.404646 7.08576 -10.5298 3.35006 -2.36194 -0.0913328 -3.55819 -3.9242 5.40612 -3.00248 -4.08408 -0.972052 0.544628 10.397 -0.057435 -5.4233 -9.93587 2.42787 1.84221 -6.59228 2.27625 -0.183944 5.87361 0.246049 -0.183942 5.87362 0.24605 0.590441 0.623308 -3.76257 -24.1283 1.14002 -4.2038 -49.8723 41.4496 -1.64371 12.3597 -0.279496 -25.3728 7.60617 0.86454 -2.09824 3.18055e-015 3.18055e-015 -0 6.36111e-015 0 -0 28.4126 6.59147 15.1098 45.6672 43.6235 5.16759 -12.5148 -0.932297 12.1625 -5.93052 2.4858 4.78993 -9.54166e-015 0 -1.59028e-015 -6.36111e-015 3.18056e-015 1.59028e-015 2.28552 13.3375 -4.19678 
